<svg width="32" height="27" viewBox="0 0 32 27" fill="none" xmlns="http://www.w3.org/2000/svg">
<path fill-rule="evenodd" clip-rule="evenodd" d="M11.0232 24.4927C6.36342 20.9223 0 15.0244 0 9.4479C0 0.131572 8.70833 -3.34701 15.8333 3.84765C22.9583 -3.34701 31.6667 0.131572 31.6667 9.4479C31.6667 15.0244 25.3017 20.9223 20.6435 24.4927C18.5345 26.1077 17.48 26.9168 15.8333 26.9168C14.1867 26.9168 13.1322 26.1093 11.0232 24.4927ZM22.9583 5.14599C23.2733 5.14599 23.5753 5.2711 23.798 5.4938C24.0207 5.7165 24.1458 6.01854 24.1458 6.33349V8.31266H26.125C26.4399 8.31266 26.742 8.43777 26.9647 8.66047C27.1874 8.88317 27.3125 9.18521 27.3125 9.50016C27.3125 9.8151 27.1874 10.1171 26.9647 10.3398C26.742 10.5625 26.4399 10.6877 26.125 10.6877H24.1458V12.6668C24.1458 12.9818 24.0207 13.2838 23.798 13.5065C23.5753 13.7292 23.2733 13.8543 22.9583 13.8543C22.6434 13.8543 22.3413 13.7292 22.1186 13.5065C21.8959 13.2838 21.7708 12.9818 21.7708 12.6668V10.6877H19.7917C19.4767 10.6877 19.1747 10.5625 18.952 10.3398C18.7293 10.1171 18.6042 9.8151 18.6042 9.50016C18.6042 9.18521 18.7293 8.88317 18.952 8.66047C19.1747 8.43777 19.4767 8.31266 19.7917 8.31266H21.7708V6.33349C21.7708 6.01854 21.8959 5.7165 22.1186 5.4938C22.3413 5.2711 22.6434 5.14599 22.9583 5.14599Z" fill="#ED1C24"/>
</svg>
