<svg width="32" height="32" viewBox="0 0 32 32" fill="none" xmlns="http://www.w3.org/2000/svg">
<path d="M10.2917 20.5833C10.7116 20.5833 11.1143 20.7501 11.4113 21.0471C11.7082 21.344 11.875 21.7467 11.875 22.1667C11.875 22.5866 11.7082 22.9893 11.4113 23.2863C11.1143 23.5832 10.7116 23.75 10.2917 23.75C9.87174 23.75 9.46901 23.5832 9.17208 23.2863C8.87515 22.9893 8.70833 22.5866 8.70833 22.1667C8.70833 21.7467 8.87515 21.344 9.17208 21.0471C9.46901 20.7501 9.87174 20.5833 10.2917 20.5833ZM7.91667 11.0833H23.75V19H7.91667V11.0833ZM21.375 20.5833C21.7949 20.5833 22.1977 20.7501 22.4946 21.0471C22.7915 21.344 22.9583 21.7467 22.9583 22.1667C22.9583 22.5866 22.7915 22.9893 22.4946 23.2863C22.1977 23.5832 21.7949 23.75 21.375 23.75C20.9551 23.75 20.5523 23.5832 20.2554 23.2863C19.9585 22.9893 19.7917 22.5866 19.7917 22.1667C19.7917 21.7467 19.9585 21.344 20.2554 21.0471C20.5523 20.7501 20.9551 20.5833 21.375 20.5833ZM25.3333 21.9767V11.0833C25.3333 6.935 21.09 6.33333 15.8333 6.33333C11.0833 6.33333 6.33333 6.91917 6.33333 11.0833V21.9767C6.33333 23.0769 6.77039 24.132 7.54835 24.91C7.93356 25.2952 8.39087 25.6008 8.89417 25.8092C9.39747 26.0177 9.9369 26.125 10.4817 26.125L8.70833 27.8983V28.5H11.3525L13.7275 26.125H18.2083L20.5833 28.5H22.9583V27.8983L21.1692 26.125C23.465 26.125 25.3333 24.2725 25.3333 21.9767ZM25.0167 1.26667C29.2442 2.91333 31.6667 6.4125 31.6667 10.8617V31.6667H0V10.8617C0 6.4125 2.4225 2.91333 6.65 1.26667C9.5 0.1425 12.8883 0 15.8333 0C18.7783 0 22.1667 0.1425 25.0167 1.26667Z" fill="#2B5991"/>
</svg>
