<svg width="48" height="48" viewBox="0 0 48 48" fill="none" xmlns="http://www.w3.org/2000/svg">
<path d="M38 40H10C8.93913 40 7.92172 39.5786 7.17157 38.8284C6.42143 38.0783 6 37.0609 6 36V18C6 16.9391 6.42143 15.9217 7.17157 15.1716C7.92172 14.4214 8.93913 14 10 14H38C39.0609 14 40.0783 14.4214 40.8284 15.1716C41.5786 15.9217 42 16.9391 42 18V36C42 37.0609 41.5786 38.0783 40.8284 38.8284C40.0783 39.5786 39.0609 40 38 40Z" stroke="#14867A" stroke-width="3"/>
<path d="M33 28C32.7348 28 32.4804 27.8946 32.2929 27.7071C32.1054 27.5196 32 27.2652 32 27C32 26.7348 32.1054 26.4804 32.2929 26.2929C32.4804 26.1054 32.7348 26 33 26C33.2652 26 33.5196 26.1054 33.7071 26.2929C33.8946 26.4804 34 26.7348 34 27C34 27.2652 33.8946 27.5196 33.7071 27.7071C33.5196 27.8946 33.2652 28 33 28Z" fill="#14867A" stroke="#14867A" stroke-width="3" stroke-linecap="round" stroke-linejoin="round"/>
<path d="M36 13.9999V11.2059C35.9998 10.5929 35.8588 9.98817 35.5877 9.43835C35.3167 8.88854 34.9229 8.40837 34.4368 8.03494C33.9507 7.66151 33.3852 7.4048 32.7841 7.28464C32.183 7.16447 31.5623 7.18407 30.97 7.34192L8.97 13.2079C8.11811 13.4349 7.36508 13.937 6.82798 14.6362C6.29088 15.3353 5.9998 16.1923 6 17.0739V17.9999" stroke="#14867A" stroke-width="3"/>
</svg>
