<svg width="57" height="57" viewBox="0 0 57 57" fill="none" xmlns="http://www.w3.org/2000/svg">
<path d="M0 56.25V12.5H12.5V0H43.75V25H56.25V56.25H31.25V43.75H25V56.25H0ZM6.25 50H12.5V43.75H6.25V50ZM6.25 37.5H12.5V31.25H6.25V37.5ZM6.25 25H12.5V18.75H6.25V25ZM18.75 37.5H25V31.25H18.75V37.5ZM18.75 25H25V18.75H18.75V25ZM18.75 12.5H25V6.25H18.75V12.5ZM31.25 37.5H37.5V31.25H31.25V37.5ZM31.25 25H37.5V18.75H31.25V25ZM31.25 12.5H37.5V6.25H31.25V12.5ZM43.75 50H50V43.75H43.75V50ZM43.75 37.5H50V31.25H43.75V37.5Z" fill="#2B5991"/>
</svg>
