<svg width="15" height="26" viewBox="0 0 15 26" fill="none" xmlns="http://www.w3.org/2000/svg">
<path fill-rule="evenodd" clip-rule="evenodd" d="M0.573306 14.0645C0.215118 13.7171 0.00957464 13.2416 0.00187628 12.7427C-0.00582207 12.2438 0.184955 11.7622 0.532254 11.4039L11.0122 0.595533C11.183 0.413144 11.3884 0.266597 11.6164 0.164443C11.8444 0.0622887 12.0905 0.00657306 12.3403 0.000547149C12.5901 -0.00547876 12.8386 0.0383061 13.0713 0.129346C13.304 0.220386 13.5163 0.356858 13.6957 0.530799C13.8751 0.704741 14.018 0.912667 14.1162 1.14245C14.2144 1.37223 14.2658 1.61926 14.2675 1.86913C14.2692 2.119 14.2211 2.3667 14.126 2.59778C14.0309 2.82887 13.8908 3.0387 13.7138 3.21505L4.54362 12.6726L14.0012 21.8428C14.3494 22.1923 14.5464 22.6647 14.5497 23.1581C14.5531 23.6515 14.3624 24.1265 14.019 24.4808C13.6755 24.835 13.2066 25.0402 12.7133 25.0521C12.2201 25.064 11.7418 24.8816 11.3817 24.5444L0.573306 14.0645Z" fill="#777B7E"/>
</svg>
