<svg width="44" height="44" viewBox="0 0 44 44" fill="none" xmlns="http://www.w3.org/2000/svg">
<path fill-rule="evenodd" clip-rule="evenodd" d="M10.0271 10.0282C10.2849 9.77069 10.6344 9.62606 10.9988 9.62606C11.3632 9.62606 11.7126 9.77069 11.9705 10.0282L33.9705 32.0282C34.1056 32.1541 34.2139 32.3059 34.2891 32.4745C34.3642 32.6432 34.4046 32.8253 34.4079 33.0099C34.4111 33.1945 34.3772 33.3779 34.308 33.5491C34.2389 33.7203 34.1359 33.8759 34.0054 34.0064C33.8748 34.137 33.7193 34.2399 33.5481 34.3091C33.3768 34.3782 33.1935 34.4122 33.0088 34.4089C32.8242 34.4057 32.6421 34.3653 32.4735 34.2901C32.3048 34.215 32.153 34.1066 32.0271 33.9715L10.0271 11.9715C9.76963 11.7137 9.625 11.3642 9.625 10.9999C9.625 10.6355 9.76963 10.286 10.0271 10.0282Z" fill="black"/>
<path fill-rule="evenodd" clip-rule="evenodd" d="M33.9686 10.0283C34.2261 10.2861 34.3707 10.6356 34.3707 10.9999C34.3707 11.3643 34.2261 11.7138 33.9686 11.9716L11.9686 33.9716C11.708 34.2145 11.3632 34.3467 11.007 34.3404C10.6508 34.3341 10.3109 34.1898 10.059 33.9379C9.80705 33.686 9.66275 33.3461 9.65646 32.9899C9.65018 32.6337 9.7824 32.2889 10.0253 32.0283L32.0253 10.0283C32.2831 9.77077 32.6326 9.62614 32.997 9.62614C33.3613 9.62614 33.7108 9.77077 33.9686 10.0283Z" fill="black"/>
</svg>
