<svg width="139" height="139" viewBox="0 0 139 139" fill="none" xmlns="http://www.w3.org/2000/svg">
<g clip-path="url(#clip0_496_2513)">
<path d="M69.5 0C75.8799 0 82.0335 0.814453 87.9609 2.44336C93.8883 4.07227 99.4085 6.42513 104.521 9.50195C109.634 12.5788 114.318 16.1986 118.571 20.3613C122.824 24.5241 126.466 29.2072 129.498 34.4106C132.53 39.6141 134.86 45.1569 136.489 51.0391C138.118 56.9212 138.955 63.0749 139 69.5C139 75.8799 138.186 82.0335 136.557 87.9609C134.928 93.8883 132.575 99.4085 129.498 104.521C126.421 109.634 122.801 114.318 118.639 118.571C114.476 122.824 109.793 126.466 104.589 129.498C99.3859 132.53 93.8431 134.86 87.9609 136.489C82.0788 138.118 75.9251 138.955 69.5 139C63.1201 139 56.9665 138.186 51.0391 136.557C45.1117 134.928 39.5915 132.575 34.4785 129.498C29.3656 126.421 24.6825 122.801 20.4292 118.639C16.1759 114.476 12.5335 109.793 9.50195 104.589C6.47038 99.3859 4.14014 93.8431 2.51123 87.9609C0.882324 82.0788 0.0452474 75.9251 0 69.5C0 63.1201 0.814453 56.9665 2.44336 51.0391C4.07227 45.1117 6.42513 39.5915 9.50195 34.4785C12.5788 29.3656 16.1986 24.6825 20.3613 20.4292C24.5241 16.1759 29.2072 12.5335 34.4106 9.50195C39.6141 6.47038 45.1569 4.14014 51.0391 2.51123C56.9212 0.882324 63.0749 0.0452474 69.5 0ZM110.426 46.4917L101.196 37.2612L56.4688 81.9883L37.8042 63.3237L28.5737 72.5542L56.4688 100.449L110.426 46.4917Z" fill="#42CF3A"/>
</g>
<defs>
<clipPath id="clip0_496_2513">
<rect width="139" height="139" fill="white"/>
</clipPath>
</defs>
</svg>
