<svg width="38" height="38" viewBox="0 0 38 38" fill="none" xmlns="http://www.w3.org/2000/svg">
<rect width="38" height="38" rx="19" fill="#777B7E"/>
<path d="M11.9117 10.8999C10.9271 10.8999 9.98281 11.291 9.28658 11.9873C8.59036 12.6835 8.19922 13.6278 8.19922 14.6124V16.2999H29.7992V14.6124C29.7992 13.6278 29.4081 12.6835 28.7119 11.9873C28.0156 11.291 27.0713 10.8999 26.0867 10.8999H11.9117ZM29.7992 17.6499H8.19922V23.3874C8.19922 24.372 8.59036 25.3163 9.28658 26.0125C9.98281 26.7088 10.9271 27.0999 11.9117 27.0999H26.0867C27.0713 27.0999 28.0156 26.7088 28.7119 26.0125C29.4081 25.3163 29.7992 24.372 29.7992 23.3874V17.6499ZM23.7242 23.0499H26.4242C26.6032 23.0499 26.7749 23.121 26.9015 23.2476C27.0281 23.3742 27.0992 23.5459 27.0992 23.7249C27.0992 23.9039 27.0281 24.0756 26.9015 24.2022C26.7749 24.3288 26.6032 24.3999 26.4242 24.3999H23.7242C23.5452 24.3999 23.3735 24.3288 23.2469 24.2022C23.1203 24.0756 23.0492 23.9039 23.0492 23.7249C23.0492 23.5459 23.1203 23.3742 23.2469 23.2476C23.3735 23.121 23.5452 23.0499 23.7242 23.0499Z" fill="white"/>
</svg>
