<svg width="12" height="12" viewBox="0 0 12 12" fill="none" xmlns="http://www.w3.org/2000/svg">
<path d="M4.175 6L0.275 2.1C0.0916668 1.91667 0 1.68333 0 1.4C0 1.11667 0.0916668 0.883333 0.275 0.7C0.458333 0.516666 0.691667 0.425 0.975 0.425C1.25833 0.425 1.49167 0.516666 1.675 0.7L6.275 5.3C6.375 5.4 6.446 5.50833 6.488 5.625C6.53 5.74167 6.55067 5.86667 6.55 6C6.54933 6.13333 6.52867 6.25833 6.488 6.375C6.44733 6.49167 6.37633 6.6 6.275 6.7L1.675 11.3C1.49167 11.4833 1.25833 11.575 0.975 11.575C0.691667 11.575 0.458333 11.4833 0.275 11.3C0.0916668 11.1167 0 10.8833 0 10.6C0 10.3167 0.0916668 10.0833 0.275 9.9L4.175 6ZM10.975 0C11.2583 0 11.496 0.0960001 11.688 0.288C11.88 0.48 11.9757 0.717333 11.975 1V11C11.975 11.2833 11.879 11.521 11.687 11.713C11.495 11.905 11.2577 12.0007 10.975 12C10.6923 11.9993 10.455 11.9033 10.263 11.712C10.071 11.5207 9.975 11.2833 9.975 11V1C9.975 0.716667 10.071 0.479333 10.263 0.288C10.455 0.0966668 10.6923 0.000666667 10.975 0Z" fill="#8E8E8E"/>
</svg>
