<svg width="29" height="29" viewBox="0 0 29 29" fill="none" xmlns="http://www.w3.org/2000/svg">
<path d="M14.4993 13.8958C13.6982 13.8958 12.9298 13.5776 12.3633 13.011C11.7968 12.4445 11.4785 11.6762 11.4785 10.875C11.4785 10.0738 11.7968 9.30545 12.3633 8.73894C12.9298 8.17242 13.6982 7.85416 14.4993 7.85416C15.3005 7.85416 16.0689 8.17242 16.6354 8.73894C17.2019 9.30545 17.5202 10.0738 17.5202 10.875C17.5202 11.2717 17.442 11.6645 17.2902 12.031C17.1384 12.3975 16.9159 12.7305 16.6354 13.011C16.3549 13.2916 16.0219 13.5141 15.6554 13.6659C15.2889 13.8177 14.896 13.8958 14.4993 13.8958ZM14.4993 2.41666C12.2561 2.41666 10.1046 3.3078 8.5184 4.89404C6.93216 6.48029 6.04102 8.6317 6.04102 10.875C6.04102 17.2187 14.4993 26.5833 14.4993 26.5833C14.4993 26.5833 22.9577 17.2187 22.9577 10.875C22.9577 8.6317 22.0665 6.48029 20.4803 4.89404C18.894 3.3078 16.7426 2.41666 14.4993 2.41666Z" fill="black"/>
</svg>
