<svg width="24" height="23" viewBox="0 0 24 23" fill="none" xmlns="http://www.w3.org/2000/svg">
<path d="M4.82667 9.95389C6.74667 13.57 9.84 16.5217 13.6133 18.3744L16.5467 15.5633C16.9067 15.2183 17.44 15.1033 17.9067 15.2567C19.4 15.7294 21.0133 15.985 22.6667 15.985C23.4 15.985 24 16.56 24 17.2628V21.7222C24 22.425 23.4 23 22.6667 23C10.1467 23 0 13.2761 0 1.27778C0 0.575 0.6 0 1.33333 0H6C6.73333 0 7.33333 0.575 7.33333 1.27778C7.33333 2.875 7.6 4.40833 8.09333 5.83944C8.24 6.28667 8.13333 6.785 7.76 7.14278L4.82667 9.95389Z" fill="black"/>
</svg>
