<svg width="38" height="38" viewBox="0 0 38 38" fill="none" xmlns="http://www.w3.org/2000/svg">
<rect width="38" height="38" rx="19" fill="#777B7E"/>
<g clip-path="url(#clip0_488_2677)">
<path d="M19 20.5266L28.88 24.4733L28.96 24.5H29L19 28.5L9 24.5H9.06667L9.12 24.4733L19 20.5266ZM19 21.94L12.5867 24.5L19 27.06L25.4133 24.5L19 21.94ZM18.6667 8.6333V19.8333L18.68 19.9133V19.94L15.6667 21.14V15.8466C15.6667 15.6095 15.6076 15.376 15.4948 15.1675C15.3819 14.9589 15.2189 14.7817 15.0203 14.652C14.8218 14.5223 14.594 14.4441 14.3577 14.4246C14.1213 14.405 13.8838 14.4447 13.6667 14.54C12.5333 15.0333 11.76 16.1266 11.68 17.3533L11.6667 17.5933V22.74L9 23.8066V12.5L18.6667 8.6333ZM19.3333 8.6333L29 12.5V23.8066L19.32 19.94L19.3333 19.8866V8.6333ZM22 13.8333V17.8333L26 19.5V15.5L22 13.8333ZM14.3333 17.5C14.7067 17.5 15 17.7933 15 18.1666C15 18.54 14.7067 18.8333 14.3333 18.8333C13.96 18.8333 13.6667 18.54 13.6667 18.1666C13.6667 17.7933 13.96 17.5 14.3333 17.5Z" fill="white"/>
</g>
<defs>
<clipPath id="clip0_488_2677">
<rect width="20" height="20" fill="white" transform="translate(9 8.5)"/>
</clipPath>
</defs>
</svg>
