<svg width="37" height="37" viewBox="0 0 37 37" fill="none" xmlns="http://www.w3.org/2000/svg">
<path d="M26.207 33.9167C24.9223 33.9167 23.8303 33.467 22.931 32.5677C22.0317 31.6684 21.582 30.5764 21.582 29.2917C21.582 29.1375 21.6206 28.7778 21.6977 28.2125L10.8674 21.8917C10.4563 22.2771 9.98099 22.5793 9.44141 22.7982C8.90182 23.0171 8.3237 23.126 7.70703 23.125C6.42231 23.125 5.3303 22.6754 4.43099 21.776C3.53168 20.8767 3.08203 19.7847 3.08203 18.5C3.08203 17.2153 3.53168 16.1233 4.43099 15.224C5.3303 14.3247 6.42231 13.875 7.70703 13.875C8.3237 13.875 8.90182 13.9845 9.44141 14.2034C9.98099 14.4223 10.4563 14.7239 10.8674 15.1083L21.6977 8.7875C21.6463 8.60764 21.6144 8.43446 21.6021 8.26796C21.5897 8.10146 21.5831 7.91492 21.582 7.70834C21.582 6.42361 22.0317 5.3316 22.931 4.43229C23.8303 3.53299 24.9223 3.08334 26.207 3.08334C27.4918 3.08334 28.5838 3.53299 29.4831 4.43229C30.3824 5.3316 30.832 6.42361 30.832 7.70834C30.832 8.99306 30.3824 10.0851 29.4831 10.9844C28.5838 11.8837 27.4918 12.3333 26.207 12.3333C25.5904 12.3333 25.0122 12.2239 24.4727 12.005C23.9331 11.786 23.4577 11.4844 23.0466 11.1L12.2164 17.4208C12.2678 17.6007 12.3002 17.7744 12.3135 17.9419C12.3269 18.1094 12.3331 18.2955 12.332 18.5C12.331 18.7045 12.3248 18.8911 12.3135 19.0596C12.3022 19.2282 12.2699 19.4014 12.2164 19.5792L23.0466 25.9C23.4577 25.5146 23.9331 25.2129 24.4727 24.995C25.0122 24.7772 25.5904 24.6677 26.207 24.6667C27.4918 24.6667 28.5838 25.1163 29.4831 26.0156C30.3824 26.9149 30.832 28.0069 30.832 29.2917C30.832 30.5764 30.3824 31.6684 29.4831 32.5677C28.5838 33.467 27.4918 33.9167 26.207 33.9167Z" fill="#2B5991"/>
</svg>
