<svg width="49" height="49" viewBox="0 0 49 49" fill="none" xmlns="http://www.w3.org/2000/svg">
<rect width="49" height="49" rx="24.5" fill="white"/>
<rect x="0.5" y="0.5" width="48" height="48" rx="24" stroke="black" stroke-opacity="0.25"/>
<path d="M23.7625 13.3468C23.8594 13.2503 23.9745 13.1739 24.101 13.1218C24.227 13.0689 24.3623 13.0416 24.4989 13.0416C24.6356 13.0416 24.7709 13.0689 24.8968 13.1218C25.0234 13.1739 25.1384 13.2503 25.2354 13.3468L33.5687 21.6802C33.7585 21.8766 33.8635 22.1398 33.8611 22.4129C33.8587 22.686 33.7492 22.9473 33.556 23.1404C33.3629 23.3335 33.1016 23.4431 32.8285 23.4455C32.5554 23.4478 32.2923 23.3428 32.0958 23.1531L25.5406 16.5979V34.9166C25.5406 35.1929 25.4308 35.4579 25.2355 35.6532C25.0401 35.8486 24.7752 35.9583 24.4989 35.9583C24.2227 35.9583 23.9577 35.8486 23.7623 35.6532C23.567 35.4579 23.4573 35.1929 23.4573 34.9166V16.5979L16.902 23.1531C16.7056 23.3428 16.4425 23.4478 16.1693 23.4455C15.8962 23.4431 15.6349 23.3335 15.4418 23.1404C15.2487 22.9473 15.1391 22.686 15.1368 22.4129C15.1344 22.1398 15.2394 21.8766 15.4291 21.6802L23.7625 13.3468Z" fill="#777B7E"/>
</svg>
