<svg width="78" height="78" viewBox="0 0 78 78" fill="none" xmlns="http://www.w3.org/2000/svg">
<g filter="url(#filter0_dd_984_1764)">
<rect x="6.5" y="4.875" width="65" height="65" rx="32.5" fill="#777B7E"/>
<path d="M39 37.375C36.7656 37.375 34.8529 36.5794 33.2617 34.9883C31.6706 33.3971 30.875 31.4844 30.875 29.25C30.875 27.0156 31.6706 25.1029 33.2617 23.5117C34.8529 21.9206 36.7656 21.125 39 21.125C41.2344 21.125 43.1471 21.9206 44.7383 23.5117C46.3294 25.1029 47.125 27.0156 47.125 29.25C47.125 31.4844 46.3294 33.3971 44.7383 34.9883C43.1471 36.5794 41.2344 37.375 39 37.375ZM22.75 49.5625V47.9375C22.75 46.7865 23.0466 45.7289 23.6397 44.7647C24.2328 43.8005 25.0196 43.0639 26 42.5547C28.099 41.5052 30.2318 40.7184 32.3984 40.1944C34.5651 39.6703 36.7656 39.4076 39 39.4062C41.2344 39.4049 43.4349 39.6676 45.6016 40.1944C47.7682 40.7211 49.901 41.5079 52 42.5547C52.9818 43.0625 53.7692 43.7992 54.3623 44.7647C54.9555 45.7302 55.2514 46.7878 55.25 47.9375V49.5625C55.25 50.6797 54.8526 51.6364 54.0577 52.4327C53.2628 53.2289 52.306 53.6264 51.1875 53.625H26.8125C25.6953 53.625 24.7393 53.2276 23.9444 52.4327C23.1495 51.6378 22.7514 50.681 22.75 49.5625Z" fill="white"/>
</g>
<defs>
<filter id="filter0_dd_984_1764" x="0" y="0" width="78" height="78" filterUnits="userSpaceOnUse" color-interpolation-filters="sRGB">
<feFlood flood-opacity="0" result="BackgroundImageFix"/>
<feColorMatrix in="SourceAlpha" type="matrix" values="0 0 0 0 0 0 0 0 0 0 0 0 0 0 0 0 0 0 127 0" result="hardAlpha"/>
<feOffset dy="0.8125"/>
<feGaussianBlur stdDeviation="0.8125"/>
<feColorMatrix type="matrix" values="0 0 0 0 0 0 0 0 0 0 0 0 0 0 0 0 0 0 0.3 0"/>
<feBlend mode="normal" in2="BackgroundImageFix" result="effect1_dropShadow_984_1764"/>
<feColorMatrix in="SourceAlpha" type="matrix" values="0 0 0 0 0 0 0 0 0 0 0 0 0 0 0 0 0 0 127 0" result="hardAlpha"/>
<feMorphology radius="1.625" operator="dilate" in="SourceAlpha" result="effect2_dropShadow_984_1764"/>
<feOffset dy="1.625"/>
<feGaussianBlur stdDeviation="2.4375"/>
<feColorMatrix type="matrix" values="0 0 0 0 0 0 0 0 0 0 0 0 0 0 0 0 0 0 0.15 0"/>
<feBlend mode="normal" in2="effect1_dropShadow_984_1764" result="effect2_dropShadow_984_1764"/>
<feBlend mode="normal" in="SourceGraphic" in2="effect2_dropShadow_984_1764" result="shape"/>
</filter>
</defs>
</svg>
